# xmcd
#
# Track frame offsets:
#	150
#	17732
#	33682
#	51172
#	65657
#	80324
#	98567
#	116431
#	135048
#	153802
#	169703
#	183735
#	194378
#	210971
#	226097
#	243509
#	260067
#	273335
#
# Disc length: 3852 seconds
#
# Revision: 1
# Processed by: cddbd v1.5.2PL0 Copyright (c) Steve Scherf et al.
# Submitted via: audiograbber 1.83.01
#
DISCID=e90f0a12
DTITLE=The BossHoss - Liberty Of Action
DYEAR=2012
DGENRE=
TTITLE0=Liberty Of Action
TTITLE1=Don't Gimme That
TTITLE2=Live It Up
TTITLE3=The Answer
TTITLE4=I Keep On Dancing
TTITLE5=My Way
TTITLE6=Still Crazy 'bout Elvis
TTITLE7=Hayday
TTITLE8=My Country
TTITLE9=Sex On Legs
TTITLE10=Riding High, Singing Low
TTITLE11=Money
TTITLE12=Run Run Devil
TTITLE13=Killers
TTITLE14=L.O.V.E.
TTITLE15=Dr. Kitch
TTITLE16=My Way [Drifter Version]
TTITLE17=Hey Baby, Don't Gimme That
EXTD=
EXTT0=
EXTT1=
EXTT2=
EXTT3=
EXTT4=
EXTT5=
EXTT6=
EXTT7=
EXTT8=
EXTT9=
EXTT10=
EXTT11=
EXTT12=
EXTT13=
EXTT14=
EXTT15=
EXTT16=
EXTT17=
PLAYORDER=
